<?xml version="1.0" encoding="UTF-8" standalone="no"?><!DOCTYPE svg PUBLIC "-//W3C//DTD SVG 1.1//EN" "http://www.w3.org/Graphics/SVG/1.1/DTD/svg11.dtd"><svg width="100%" height="100%" viewBox="0 0 125 55" version="1.1" xmlns="http://www.w3.org/2000/svg" xmlns:xlink="http://www.w3.org/1999/xlink" xml:space="preserve" xmlns:serif="http://www.serif.com/" style="fill-rule:evenodd;clip-rule:evenodd;stroke-linejoin:round;stroke-miterlimit:2;"><g><clipPath id="_clip1"><rect x="-0" y="-0" width="125" height="55"/></clipPath><g clip-path="url(#_clip1)"><path d="M68.57,24.118c-3.924,4.872 -8.032,9.554 -12.146,14.052c2.989,1.875 5.795,3.934 8.595,6.183c-16.816,8.427 -36.437,7.869 -52.879,-1.127c3.362,-0.938 6.729,-2.059 9.718,-3.371c5.416,-2.623 10.092,-6.183 14.762,-9.928c2.8,-2.433 5.794,-4.872 8.783,-7.305c2.054,-1.685 4.297,-3.186 6.357,-4.872c0.184,2.623 -0.189,5.246 -1.497,7.679c5.978,-1.501 12.334,-2.059 18.313,-1.311l-0.006,-0Zm-19.805,-9.928c-11.21,7.869 -21.112,19.108 -33.82,23.416c-4.859,1.685 -9.902,2.249 -14.945,2.997c24.664,20.603 60.911,18.918 83.521,-3.934c1.681,-1.876 3.551,-3.745 5.605,-5.43c10.275,-8.427 23.172,-12.551 35.874,-11.613c-5.789,-9.928 -15.507,-16.67 -26.534,-18.919c-5.795,-1.311 -15.525,-0.765 -23.729,1.496c-6.89,1.898 -17.94,6.367 -25.972,11.993l0,-0.006Z" style="fill:#bc6c25;"/><path d="M21.858,39.849c-2.989,1.312 -6.351,2.439 -9.718,3.371c16.442,8.99 36.063,9.554 52.879,1.127c-2.8,-2.249 -5.606,-4.308 -8.595,-6.183c4.108,-4.498 8.222,-9.18 12.146,-14.052c-5.978,-0.748 -12.329,-0.19 -18.313,1.312c1.308,-2.439 1.681,-5.056 1.497,-7.679c-2.054,1.685 -4.297,3.186 -6.356,4.872c-2.989,2.438 -5.978,4.871 -8.784,7.305c-4.67,3.744 -9.346,7.304 -14.761,9.927l0.005,0Z" style="fill:#fff;"/></g></g></svg>