<?xml version="1.0" encoding="UTF-8" standalone="no"?>
<!DOCTYPE svg PUBLIC "-//W3C//DTD SVG 1.1//EN" "http://www.w3.org/Graphics/SVG/1.1/DTD/svg11.dtd">
<svg width="100%" height="100%" viewBox="0 0 195 316" version="1.1" xmlns="http://www.w3.org/2000/svg" xmlns:xlink="http://www.w3.org/1999/xlink" xml:space="preserve" xmlns:serif="http://www.serif.com/" style="fill-rule:evenodd;clip-rule:evenodd;stroke-linejoin:round;stroke-miterlimit:2;">
    <g id="Livello_1-2">
        <g>
            <g>
                <path d="M64.16,154.37C41.36,149.49 16.94,156.65 0.33,172.61C-0,175.54 -0,178.15 -0,180.76C-0,210.72 14.33,238.73 38.1,256.32C26.7,247.52 20.84,233.2 22.47,218.86C24.43,203.23 34.85,190.2 49.83,184.99C52.76,183.69 55.36,183.04 57.97,182.71L59.27,182.71C72.95,181.08 85,185.97 97.05,191.83C102.59,194.44 108.45,197.69 113.66,196.71C118.22,196.39 122.13,193.13 126.36,190.2C123.1,189.22 119.19,188.57 116.26,186.94C109.75,184.33 104.86,178.8 99.33,174.24C89.56,165.45 78.16,158.94 65.79,154.7C65.14,154.7 64.81,154.37 64.16,154.37Z" style="fill:rgb(221,161,94);"/>
                <path d="M93.34,80.43C85.65,80.13 78.56,83.39 73.23,89.01C73.82,92.85 74.71,96.11 76.49,99.36C79.15,104.39 83.59,108.53 88.02,112.96C85.07,101.72 86.84,89.6 93.34,80.43Z" style="fill:url(#_Linear1);"/>
                <path d="M127.99,227.98C98.03,229.61 69.04,212.02 57.97,182.71C55.36,183.04 52.76,183.69 49.83,184.99C34.85,190.2 24.43,203.23 22.47,218.86C20.84,233.19 26.71,247.52 38.1,256.32C39.08,256.97 40.05,257.95 41.03,258.6C70.34,266.09 101.28,257.3 121.8,235.48C124.08,233.2 126.03,230.6 127.99,227.99L127.99,227.98Z" style="fill:url(#_Linear2);"/>
                <path d="M121.8,235.47C101.28,257.29 70.34,266.08 41.03,258.59C62.53,273.9 80.77,293.44 94.44,315.91C108.12,293.44 126.03,273.9 147.53,258.59C155.34,245.88 159.58,231.88 160.56,217.88C156,220.81 150.79,223.09 145.25,225.04C139.39,226.67 133.85,227.65 127.99,227.97C126.04,230.58 124.08,233.18 121.8,235.46L121.8,235.47Z" style="fill:url(#_Linear3);"/>
                <path d="M160.56,217.88C162.19,195.73 155.02,173.26 140.37,155.35C148.18,180.43 143.3,207.13 127.99,227.98C133.85,227.65 139.39,226.68 145.25,225.05C150.79,223.1 156,220.82 160.56,217.89L160.56,217.88Z" style="fill:rgb(94,112,67);"/>
                <path d="M193.45,171.63C189.54,190.85 177.82,207.78 160.56,217.88C159.58,231.89 155.35,245.89 147.53,258.59C175.21,238.07 192.14,206.15 193.45,171.63Z" style="fill:rgb(94,112,67);"/>
                <path d="M152.74,119.52C144.27,112.68 136.13,105.52 128.31,98.35C125.05,103.56 121.47,108.45 117.56,113.33C102.91,84.02 103.88,49.82 119.52,21.16C121.15,27.02 123.1,32.89 125.38,38.1C129.94,47.54 136.13,55.69 142.64,63.83C146.87,68.71 151.11,73.93 155.34,79.14C158.27,82.72 160.88,86.63 163.81,90.22C159.25,90.54 154.69,89.89 150.46,87.61C153.07,98.03 154.04,109.11 152.74,119.53L152.74,119.52ZM170,85C156.32,65.46 136.78,48.2 129.29,26.05C126.36,17.58 125.38,8.79 124.08,-0C88.26,42.99 91.19,106.17 130.92,145.58C134.18,148.51 137.43,151.77 140.36,155.35C155.01,173.26 162.18,195.74 160.55,217.88C177.81,207.79 189.53,190.85 193.44,171.63C195.72,161.53 194.77,144.57 190.84,130.27C187.54,118.26 179.77,99 169.99,85L170,85Z" style="fill:rgb(53,63,38);"/>
                <path d="M125.39,38.1C123.11,32.89 121.15,27.03 119.53,21.16C103.9,49.82 102.92,84.02 117.57,113.33C121.48,108.45 125.06,103.56 128.32,98.35C136.14,105.51 144.28,112.68 152.75,119.52C154.05,109.1 153.08,98.03 150.47,87.6C154.71,89.88 159.26,90.53 163.82,90.21C160.89,86.63 158.28,82.72 155.35,79.13C151.11,73.92 146.88,68.71 142.65,63.82C136.14,55.68 129.95,47.53 125.39,38.09L125.39,38.1Z" style="fill:rgb(94,112,67);"/>
                <path d="M121.48,185.64C119.85,184.34 118.87,183.04 117.57,181.41C113.66,176.52 111.71,170.01 110.08,163.5C108.13,155.03 107.15,146.24 103.57,138.42C100.64,132.23 96.08,126.69 91.19,121.16C89.89,119.53 88.26,117.9 86.63,116.6C81.75,111.72 76.86,107.15 73.93,101.62C71.97,98.04 71,94.45 70.35,90.22C69.05,83.05 69.37,74.91 68.72,67.42C56.67,76.87 47.23,89.24 40.71,103.25C17.59,119.2 2.61,144.93 0.33,172.61C16.94,156.66 41.36,149.49 64.16,154.37C64.81,154.37 65.14,154.7 65.79,154.7C78.16,158.94 89.56,165.45 99.33,174.24C104.86,178.8 109.75,184.34 116.26,186.94C119.19,188.57 123.1,189.22 126.36,190.2C124.73,188.57 122.78,187.27 121.47,185.64L121.48,185.64ZM93.89,154.61C91.11,152.23 88.73,149.85 85.95,147.86C83.97,146.27 81.58,145.08 79.2,143.49C79.2,143.49 87.24,143.79 91.23,145.31C92.99,145.98 96.1,147.87 96.87,148.58C98.05,149.67 98.67,151.04 98.67,151.04C99.77,153.8 100.23,158.18 100.63,160.57C98.25,158.59 95.87,156.6 93.88,154.62L93.89,154.61Z" style="fill:url(#_Linear4);"/>
                <path d="M37.42,164.34C38.1,164.15 57.28,169.77 57.28,169.77C71.53,170.7 85.43,177.55 98.24,184.03C105.37,187.25 111.88,191.63 119.57,190.99C121.51,191.47 124.06,190.29 126.24,190.29C126.28,190.26 126.33,190.23 126.37,190.2C123.11,189.22 119.2,188.57 116.27,186.94C109.76,184.33 104.87,178.8 99.34,174.24C89.57,165.45 78.17,158.94 65.8,154.7C65.15,154.7 64.82,154.37 64.17,154.37C41.37,149.49 16.95,156.65 0.34,172.61C0.01,175.54 0.01,178.15 0.01,180.76C0.01,186.3 1.28,196.03 3.32,204.63C7.05,187.89 22.16,178.27 31.72,174.87C35.44,173.55 21.76,170.23 21.76,170.23C24.19,169.84 44.56,169.61 44.56,169.61C44.56,169.61 37.43,164.86 37.43,164.35L37.42,164.34Z" style="fill:rgb(188,108,37);"/>
            </g>
        </g>
    </g>
    <defs>
        <linearGradient id="_Linear1" x1="0" y1="0" x2="1" y2="0" gradientUnits="userSpaceOnUse" gradientTransform="matrix(14.48,-33.04,33.04,14.48,72.44,119.65)"><stop offset="0" style="stop-color:rgb(215,155,88);stop-opacity:1"/><stop offset="1" style="stop-color:rgb(110,62,24);stop-opacity:1"/></linearGradient>
        <linearGradient id="_Linear2" x1="0" y1="0" x2="1" y2="0" gradientUnits="userSpaceOnUse" gradientTransform="matrix(-5889.23,-5489.8,5489.8,-5889.23,9380.23,19801.4)"><stop offset="0" style="stop-color:rgb(215,155,88);stop-opacity:1"/><stop offset="1" style="stop-color:rgb(110,62,24);stop-opacity:1"/></linearGradient>
        <linearGradient id="_Linear3" x1="0" y1="0" x2="1" y2="0" gradientUnits="userSpaceOnUse" gradientTransform="matrix(57.09,-51.62,51.62,57.09,80.72,275.52)"><stop offset="0" style="stop-color:rgb(215,155,88);stop-opacity:1"/><stop offset="1" style="stop-color:rgb(65,79,47);stop-opacity:1"/></linearGradient>
        <linearGradient id="_Linear4" x1="0" y1="0" x2="1" y2="0" gradientUnits="userSpaceOnUse" gradientTransform="matrix(-43.45,-15.84,15.84,-43.45,112.91,148.59)"><stop offset="0" style="stop-color:rgb(215,155,88);stop-opacity:1"/><stop offset="1" style="stop-color:rgb(188,108,37);stop-opacity:1"/></linearGradient>
    </defs>
</svg>
