<svg width="912" height="204" viewBox="0 0 912 204" fill="none" xmlns="http://www.w3.org/2000/svg">
<g clip-path="url(#clip0_123_1983)">
<path d="M881.365 38.292C880.77 38.9691 880.102 39.5849 879.398 40.1477C877.183 38.447 872.597 34.533 870.156 29.6047C870.238 29.5531 870.278 29.5272 870.278 29.5272C870.987 28.808 871.695 28.3023 872.332 27.9502C875.038 33.4671 879.017 36.7299 881.365 38.292Z" fill="white"/>
<path d="M877.646 41.3998C876.775 41.9531 875.883 42.4385 875.032 42.8518C871.475 40.6861 868.362 36.6007 866.559 33.9021C866.966 33.0741 867.43 32.3658 867.889 31.7812C870.09 34.8945 873.498 38.954 877.646 41.3998Z" fill="white"/>
<path d="M860.755 46.0686C861.332 45.2936 861.448 43.892 861.448 43.892C861.386 42.4536 861.754 41.0588 862.315 39.7971C863.198 41.6148 864.965 44.4317 868.008 46.1977C868.038 46.2154 868.067 46.2331 868.097 46.2494C868.54 46.006 868.958 45.6757 869.331 45.2461C869.422 45.1373 869.534 45.0448 869.651 44.9728C869.325 44.7485 868.961 44.4874 868.572 44.1938C866.598 42.7024 864.048 40.3831 863.333 37.9142C863.736 37.2779 864.158 36.7042 864.562 36.208C866.434 39.3227 869.261 41.7453 871.526 43.3482C871.845 43.5739 872.152 43.7832 872.444 43.9749C872.62 43.9083 872.802 43.8362 872.989 43.7601C872.885 44.9606 872.377 47.405 870.064 49.1818C870.064 49.1818 869.829 50.4163 869.057 50.7969C869.057 50.7969 868.776 51.5569 868.425 51.6983C868.425 51.6983 867.747 52.8145 867.327 52.8852C867.327 52.8852 868.01 53.7403 866.919 54.3099C866.919 54.3099 865.992 53.3365 867.209 52.1266L867.813 51.5134C867.813 51.5134 867.637 50.8935 868.384 50.6175C868.384 50.6175 867.434 49.9704 868.859 49.3776L869.225 49.1016C869.225 49.1016 867.73 48.8093 867.603 48.3131C867.546 48.0942 867.742 47.2201 867.979 46.3119C866.063 47.318 863.833 46.8748 863.833 46.8748C860.985 47.4444 860.185 46.8448 860.755 46.0686Z" fill="white"/>
<path d="M868.72 58.1124C868.72 58.1124 868.476 57.6447 869.305 57.2872C869.305 57.2872 869.256 56.5299 870.171 56.1044C870.171 56.1044 869.006 55.7142 870.822 53.7864C872.637 51.8587 873.9 50.4896 873.9 50.4896C873.596 48.5741 875.839 45.3928 877.678 42.6031C877.801 42.4155 877.97 42.2727 878.16 42.1572C878.277 42.0865 878.41 41.9397 878.482 41.6365C878.541 41.3931 878.72 41.1987 878.945 41.094C879.086 41.0288 879.271 40.9676 879.512 40.9255C879.512 40.9255 882.074 38.9841 882.785 36.8727C882.86 36.6498 882.958 36.4649 883.07 36.3099H883.066V36.3126C882.963 36.367 882.867 36.4309 882.777 36.507C879.623 34.4433 876.566 29.9134 874.859 27.0951C875.032 27.0435 875.2 26.9714 875.358 26.879C877.29 25.7302 880.887 25.6731 881.921 26.6193C882.206 26.879 882.559 27.0435 882.935 27.0339C883.842 27.0095 884.21 26.7566 884.458 26.4154C882.918 25.5616 878.391 22.7882 875.201 18.1128C871.304 12.3988 874.401 10.5403 874.401 10.5403C873.469 9.52613 871.536 1.54714 873.601 0.161799C875.667 -1.2249 880.731 6.51752 883.362 12.6707C885.803 18.3779 888.931 23.6488 889.372 24.3815C896.1 24.3924 897.578 27.4731 897.578 27.4731L899.213 26.8477C900.94 26.3787 902.076 27.2039 902.762 28.5552C903.384 28.3268 907.952 26.6614 908.036 26.9741C908.125 27.3045 908.524 27.3847 902.99 29.0623C903.031 29.1697 903.072 29.2771 903.109 29.3873C903.18 29.337 903.258 29.2948 903.342 29.2676C905.137 28.6912 912.214 28.1773 911.534 28.8652C910.806 29.6048 909.465 28.8475 908.412 29.2391C907.359 29.6306 904.086 29.8577 904.086 29.8577C904.011 29.8672 903.941 29.8835 903.875 29.9025C903.665 29.9664 903.49 30.0956 903.352 30.2628C903.973 33.0403 903.448 36.4921 902.462 36.8496C902.396 38.0338 902.249 39.3471 901.76 39.3471C901.271 39.3471 900.975 37.2983 900.975 37.2983C899.504 37.7564 898.087 37.4057 897.259 37.0957C897.607 38.061 897.942 39.6461 897.398 41.4856C897.398 41.4856 896.261 43.3603 894.326 42.8288C894.326 42.8288 893.727 43.0857 893.608 43.5099C893.489 43.9354 892.571 45.0081 891.494 43.6717C891.494 43.6717 892.053 43.7723 892.232 43.6309C892.232 43.6309 892.69 43.2461 892.95 43.3277C892.95 43.3277 893.241 41.8472 895.603 41.0886C895.603 41.0886 895.935 38.7502 895.9 37.2588C892.632 39.7427 890.532 38.6537 889.821 38.1153C890.208 39.7019 890.496 42.8519 888.895 43.4936C888.895 43.4936 888.161 44.9523 886.505 45.5016C886.505 45.5016 885.902 48.468 884.951 48.4939C884.001 48.5197 883.77 47.9337 883.77 47.9337C883.77 47.9337 884.772 48.2981 884.797 47.3859C884.823 46.4736 885.863 45.4703 885.863 45.4703C885.863 45.4703 885.35 44.2848 887.624 42.6412C887.624 42.6412 887.702 42.1844 887.856 42.1721C887.856 42.1721 887.73 38.3111 888.028 37.2371C887.171 36.9013 886.436 36.6634 885.811 36.4962C885.395 37.2004 884.541 38.4566 883.344 39.2614C883.344 39.2614 882.777 41.6596 880.512 42.1762C880.512 42.1762 879.515 42.077 878.773 44.278C878.03 46.4791 877.562 49.3327 875.784 51.0185C875.784 51.0185 873.655 55.0236 871.017 56.7475C871.017 56.7475 870.101 57.7522 869.694 57.7059C869.694 57.7059 869.573 58.3028 869.061 58.47C869.061 58.47 869.122 59.1117 868.67 59.1728C868.67 59.1728 868.023 60.7784 867.601 60.9307C867.179 61.083 866.095 61.1754 868.053 58.8982C868.053 58.8982 868.049 58.2225 868.72 58.1111V58.1124Z" fill="white"/>
</g>
<path d="M94.4321 134.333L94.6194 133.87L94.4321 134.333ZM195.818 125.152L195.351 125.332L195.818 125.152ZM156.419 128.72L156.895 128.565L156.419 128.72ZM275.763 171.632L276.034 172.052L275.763 171.632ZM451.843 110L452.076 109.558L451.843 110ZM619.076 114.436L619.495 114.708L619.076 114.436ZM593.644 67.5386L593.398 67.1033L593.644 67.5386ZM575.218 103.848L575.646 103.59L575.218 103.848ZM726.24 104.732L726.523 105.144L726.24 104.732ZM876.309 42.4435C876.584 42.4186 876.787 42.1755 876.762 41.9005C876.737 41.6255 876.494 41.4227 876.219 41.4476L876.309 42.4435ZM3.57306 150.983C4.03061 150.535 4.51875 150.076 5.03668 149.608L4.36633 148.866C3.83897 149.343 3.34109 149.811 2.87356 150.268L3.57306 150.983ZM8.12227 147.005C9.13092 146.207 10.2136 145.396 11.3667 144.581L10.7899 143.764C9.62212 144.589 8.52488 145.411 7.50166 146.221L8.12227 147.005ZM14.7287 142.33C15.8342 141.629 16.9897 140.931 18.1932 140.243L17.6968 139.374C16.4799 140.07 15.3111 140.776 14.1927 141.486L14.7287 142.33ZM21.762 138.307C22.9365 137.704 24.1487 137.114 25.397 136.541L24.9797 135.632C23.718 136.211 22.4925 136.808 21.3052 137.418L21.762 138.307ZM29.119 134.93C30.3501 134.43 31.6112 133.948 32.901 133.489L32.5656 132.547C31.2616 133.011 29.9867 133.498 28.7422 134.004L29.119 134.93ZM36.7443 132.216C38.0208 131.825 39.3218 131.457 40.6463 131.116L40.3971 130.148C39.0576 130.493 37.742 130.864 36.4514 131.26L36.7443 132.216ZM44.5884 130.198C45.8946 129.925 47.2212 129.679 48.5671 129.463L48.4085 128.475C47.047 128.694 45.7051 128.943 44.3839 129.219L44.5884 130.198ZM52.5786 128.915C53.907 128.766 55.2524 128.647 56.6137 128.559L56.5498 127.562C55.1723 127.65 53.811 127.771 52.467 127.922L52.5786 128.915ZM60.6622 128.399C61.9965 128.378 63.3446 128.389 64.7059 128.434L64.7389 127.434C63.3613 127.389 61.9969 127.378 60.6467 127.399L60.6622 128.399ZM68.7444 128.666C70.0743 128.775 71.4157 128.917 72.7678 129.094L72.8976 128.102C71.5293 127.923 70.1719 127.779 68.8259 127.669L68.7444 128.666ZM76.7668 129.715C78.0795 129.952 79.4015 130.222 80.7321 130.527L80.9558 129.553C79.6098 129.244 78.2723 128.97 76.944 128.731L76.7668 129.715ZM84.6553 131.525C85.9393 131.884 87.2306 132.276 88.5287 132.703L88.8413 131.753C87.5287 131.321 86.2229 130.924 84.9242 130.562L84.6553 131.525ZM92.3458 134.054C92.9773 134.293 93.6103 134.541 94.2447 134.797L94.6194 133.87C93.9783 133.611 93.3385 133.36 92.7001 133.118L92.3458 134.054ZM94.2447 134.797C94.8745 135.052 95.5046 135.301 96.135 135.546L96.4971 134.614C95.8709 134.371 95.245 134.123 94.6194 133.87L94.2447 134.797ZM99.9283 136.962C101.205 137.419 102.483 137.858 103.759 138.277L104.072 137.327C102.803 136.91 101.534 136.475 100.265 136.02L99.9283 136.962ZM107.629 139.493C108.93 139.883 110.23 140.254 111.527 140.607L111.789 139.642C110.501 139.292 109.209 138.923 107.917 138.535L107.629 139.493ZM115.449 141.618C116.767 141.94 118.082 142.243 119.392 142.528L119.604 141.551C118.303 141.268 116.996 140.967 115.686 140.647L115.449 141.618ZM123.363 143.337C124.701 143.591 126.033 143.827 127.358 144.043L127.519 143.056C126.203 142.841 124.88 142.607 123.55 142.354L123.363 143.337ZM131.367 144.646C132.717 144.831 134.058 144.996 135.389 145.143L135.499 144.149C134.177 144.003 132.844 143.839 131.503 143.655L131.367 144.646ZM139.421 145.533C140.781 145.646 142.128 145.739 143.461 145.813L143.516 144.815C142.192 144.741 140.854 144.648 139.504 144.536L139.421 145.533ZM147.506 145.982C148.873 146.019 150.224 146.036 151.556 146.033L151.554 145.033C150.231 145.036 148.891 145.019 147.534 144.982L147.506 145.982ZM155.611 145.964C156.984 145.919 158.335 145.852 159.662 145.765L159.597 144.767C158.281 144.854 156.941 144.919 155.578 144.964L155.611 145.964ZM163.703 145.43C165.078 145.291 166.422 145.129 167.733 144.945L167.594 143.955C166.296 144.137 164.965 144.297 163.602 144.435L163.703 145.43ZM171.749 144.296C173.122 144.042 174.452 143.763 175.734 143.46L175.504 142.487C174.239 142.786 172.925 143.062 171.568 143.312L171.749 144.296ZM179.667 142.411C181.015 142.008 182.298 141.574 183.511 141.112L183.155 140.178C181.967 140.63 180.707 141.056 179.38 141.454L179.667 142.411ZM187.276 139.476C188.574 138.832 189.757 138.147 190.816 137.426L190.253 136.599C189.237 137.292 188.094 137.954 186.831 138.581L187.276 139.476ZM193.984 134.766C195.022 133.661 195.807 132.487 196.3 131.251L195.372 130.88C194.933 131.979 194.224 133.05 193.255 134.081L193.984 134.766ZM196.827 127.041C196.732 126.356 196.552 125.666 196.285 124.972L195.351 125.332C195.593 125.959 195.753 126.574 195.836 127.178L196.827 127.041ZM196.285 124.972C196.031 124.316 195.736 123.682 195.402 123.071L194.525 123.551C194.838 124.124 195.115 124.718 195.351 125.332L196.285 124.972ZM192.97 119.686C192.047 118.673 191.006 117.749 189.876 116.916L189.283 117.721C190.365 118.519 191.356 119.399 192.231 120.359L192.97 119.686ZM186.353 114.746C185.138 114.123 183.865 113.582 182.557 113.124L182.227 114.068C183.494 114.511 184.724 115.034 185.896 115.636L186.353 114.746ZM178.588 112.013C177.236 111.723 175.87 111.518 174.514 111.399L174.427 112.395C175.742 112.51 177.067 112.709 178.379 112.99L178.588 112.013ZM170.388 111.309C168.973 111.374 167.595 111.542 166.28 111.816L166.484 112.795C167.742 112.533 169.068 112.371 170.434 112.308L170.388 111.309ZM162.316 113.062C160.987 113.647 159.781 114.382 158.75 115.274L159.404 116.03C160.35 115.213 161.467 114.528 162.719 113.977L162.316 113.062ZM156.139 118.597C155.535 119.811 155.16 121.173 155.054 122.683L156.051 122.753C156.148 121.368 156.491 120.134 157.034 119.043L156.139 118.597ZM155.395 126.864C155.536 127.515 155.719 128.185 155.944 128.875L156.895 128.565C156.679 127.905 156.506 127.268 156.372 126.652L155.395 126.864ZM155.944 128.875C156.141 129.478 156.374 130.1 156.643 130.74L157.565 130.353C157.306 129.735 157.082 129.139 156.895 128.565L155.944 128.875ZM158.402 134.312C159.015 135.408 159.709 136.54 160.481 137.701L161.313 137.148C160.555 136.006 159.874 134.895 159.275 133.824L158.402 134.312ZM162.783 140.946C163.553 141.97 164.377 143.009 165.251 144.058L166.019 143.419C165.155 142.381 164.342 141.354 163.582 140.345L162.783 140.946ZM167.85 147.048C168.716 148.004 169.621 148.965 170.563 149.928L171.277 149.228C170.345 148.275 169.448 147.323 168.591 146.377L167.85 147.048ZM173.376 152.703C174.315 153.597 175.285 154.49 176.282 155.378L176.947 154.631C175.958 153.751 174.997 152.865 174.066 151.979L173.376 152.703ZM179.276 157.956C180.277 158.79 181.302 159.618 182.352 160.437L182.967 159.648C181.926 158.836 180.909 158.015 179.916 157.188L179.276 157.956ZM185.507 162.818C186.564 163.59 187.641 164.351 188.738 165.099L189.302 164.272C188.214 163.531 187.145 162.776 186.096 162.011L185.507 162.818ZM192.044 167.273C193.152 167.977 194.278 168.666 195.42 169.338L195.927 168.476C194.795 167.81 193.679 167.127 192.58 166.429L192.044 167.273ZM198.861 171.285C200.016 171.912 201.185 172.521 202.369 173.11L202.814 172.214C201.642 171.631 200.483 171.028 199.338 170.406L198.861 171.285ZM205.942 174.806C207.142 175.349 208.355 175.869 209.579 176.366L209.955 175.44C208.744 174.948 207.543 174.432 206.354 173.895L205.942 174.806ZM213.277 177.78C214.518 178.226 215.769 178.646 217.03 179.039L217.327 178.084C216.08 177.696 214.842 177.28 213.615 176.839L213.277 177.78ZM220.835 180.132C222.112 180.467 223.396 180.773 224.688 181.048L224.897 180.07C223.62 179.799 222.351 179.496 221.09 179.165L220.835 180.132ZM228.582 181.777C229.886 181.987 231.195 182.164 232.51 182.307L232.617 181.313C231.32 181.172 230.028 180.997 228.742 180.79L228.582 181.777ZM236.462 182.626C237.779 182.697 239.1 182.73 240.425 182.726L240.421 181.726C239.116 181.73 237.814 181.697 236.516 181.628L236.462 182.626ZM244.386 182.597C245.7 182.515 247.017 182.394 248.335 182.232L248.212 181.239C246.915 181.399 245.619 181.518 244.324 181.598L244.386 182.597ZM252.257 181.627C253.551 181.386 254.845 181.104 256.139 180.779L255.896 179.809C254.622 180.129 253.348 180.407 252.074 180.644L252.257 181.627ZM259.947 179.697C261.194 179.3 262.439 178.861 263.683 178.38L263.321 177.447C262.097 177.921 260.871 178.353 259.643 178.744L259.947 179.697ZM267.34 176.834C268.531 176.288 269.72 175.7 270.904 175.069L270.435 174.186C269.267 174.808 268.096 175.387 266.923 175.925L267.34 176.834ZM274.333 173.117C274.901 172.772 275.468 172.417 276.034 172.052L275.492 171.212C274.934 171.572 274.374 171.922 273.814 172.262L274.333 173.117ZM276.034 172.052C276.577 171.701 277.121 171.348 277.667 170.992L277.121 170.154C276.576 170.51 276.033 170.862 275.492 171.212L276.034 172.052ZM280.961 168.826C282.039 168.112 283.124 167.388 284.214 166.656L283.656 165.825C282.568 166.557 281.485 167.279 280.408 167.993L280.961 168.826ZM287.468 164.459C288.546 163.727 289.63 162.988 290.719 162.244L290.155 161.418C289.067 162.162 287.984 162.9 286.906 163.631L287.468 164.459ZM293.946 160.031C295.02 159.293 296.098 158.55 297.181 157.804L296.613 156.98C295.531 157.727 294.453 158.469 293.38 159.207L293.946 160.031ZM300.411 155.575C301.482 154.836 302.557 154.093 303.636 153.349L303.068 152.526C301.989 153.27 300.914 154.013 299.843 154.752L300.411 155.575ZM306.871 151.12C307.943 150.382 309.02 149.643 310.1 148.903L309.535 148.078C308.454 148.819 307.377 149.558 306.304 150.296L306.871 151.12ZM313.339 146.691C314.417 145.957 315.5 145.223 316.585 144.49L316.025 143.661C314.939 144.395 313.856 145.13 312.776 145.865L313.339 146.691ZM319.837 142.304C320.922 141.578 322.011 140.853 323.102 140.131L322.551 139.297C321.458 140.02 320.368 140.745 319.281 141.472L319.837 142.304ZM326.377 137.98C327.471 137.266 328.567 136.555 329.666 135.848L329.126 135.007C328.025 135.715 326.926 136.427 325.83 137.142L326.377 137.98ZM332.97 133.742C334.075 133.043 335.182 132.35 336.292 131.661L335.765 130.812C334.653 131.501 333.543 132.197 332.436 132.896L332.97 133.742ZM339.63 129.613C340.748 128.934 341.868 128.261 342.99 127.596L342.48 126.736C341.355 127.403 340.232 128.077 339.111 128.758L339.63 129.613ZM346.37 125.617C347.502 124.963 348.636 124.317 349.771 123.68L349.281 122.808C348.142 123.447 347.005 124.095 345.87 124.751L346.37 125.617ZM353.201 121.783C354.35 121.159 355.499 120.544 356.651 119.94L356.186 119.054C355.03 119.661 353.876 120.278 352.724 120.905L353.201 121.783ZM360.133 118.146C361.302 117.555 362.472 116.977 363.642 116.41L363.207 115.51C362.031 116.079 360.856 116.66 359.682 117.253L360.133 118.146ZM367.174 114.742C368.365 114.193 369.557 113.657 370.75 113.136L370.35 112.219C369.151 112.743 367.952 113.282 366.755 113.834L367.174 114.742ZM374.349 111.609C375.559 111.111 376.769 110.629 377.98 110.164L377.621 109.23C376.403 109.699 375.185 110.183 373.968 110.684L374.349 111.609ZM381.651 108.804C382.883 108.366 384.115 107.946 385.346 107.545L385.037 106.594C383.796 106.998 382.556 107.421 381.316 107.862L381.651 108.804ZM389.08 106.389C390.336 106.02 391.592 105.672 392.848 105.346L392.597 104.378C391.331 104.707 390.064 105.058 388.798 105.43L389.08 106.389ZM396.638 104.429C397.914 104.143 399.19 103.881 400.464 103.643L400.28 102.66C398.994 102.9 397.707 103.165 396.42 103.453L396.638 104.429ZM404.316 103.001C405.606 102.812 406.895 102.649 408.182 102.514L408.078 101.519C406.777 101.656 405.474 101.82 404.171 102.012L404.316 103.001ZM412.069 102.191C413.37 102.111 414.669 102.061 415.966 102.042L415.951 101.042C414.638 101.062 413.324 101.112 412.008 101.193L412.069 102.191ZM419.861 102.078C421.16 102.121 422.457 102.196 423.751 102.305L423.835 101.309C422.523 101.198 421.21 101.122 419.894 101.078L419.861 102.078ZM427.621 102.731C428.904 102.907 430.185 103.116 431.463 103.361L431.651 102.378C430.355 102.13 429.057 101.918 427.756 101.74L427.621 102.731ZM435.273 104.197C436.524 104.508 437.772 104.854 439.017 105.236L439.31 104.28C438.048 103.893 436.782 103.542 435.514 103.227L435.273 104.197ZM442.703 106.479C443.917 106.924 445.127 107.406 446.334 107.925L446.729 107.006C445.506 106.48 444.279 105.992 443.048 105.54L442.703 106.479ZM449.857 109.55C450.442 109.838 451.027 110.136 451.61 110.443L452.076 109.558C451.484 109.247 450.892 108.945 450.299 108.653L449.857 109.55ZM451.61 110.443C452.192 110.749 452.776 111.054 453.361 111.358L453.822 110.47C453.238 110.167 452.656 109.863 452.076 109.558L451.61 110.443ZM456.899 113.171C458.073 113.765 459.255 114.355 460.443 114.94L460.885 114.043C459.7 113.459 458.521 112.871 457.35 112.278L456.899 113.171ZM464.015 116.676C465.205 117.247 466.401 117.812 467.603 118.373L468.026 117.466C466.827 116.908 465.634 116.343 464.447 115.774L464.015 116.676ZM471.207 120.029C472.411 120.574 473.621 121.114 474.834 121.647L475.236 120.732C474.026 120.2 472.821 119.662 471.62 119.118L471.207 120.029ZM478.475 123.223C479.692 123.741 480.913 124.252 482.137 124.756L482.518 123.832C481.297 123.329 480.08 122.819 478.867 122.303L478.475 123.223ZM485.816 126.246C487.045 126.736 488.278 127.218 489.513 127.691L489.871 126.758C488.64 126.285 487.411 125.805 486.185 125.317L485.816 126.246ZM493.228 129.09C494.471 129.548 495.715 129.998 496.961 130.439L497.294 129.496C496.053 129.057 494.813 128.608 493.575 128.151L493.228 129.09ZM500.714 131.739C501.969 132.163 503.225 132.579 504.482 132.984L504.789 132.032C503.537 131.628 502.285 131.215 501.035 130.791L500.714 131.739ZM508.271 134.175C509.54 134.564 510.81 134.942 512.078 135.309L512.356 134.348C511.092 133.983 509.828 133.606 508.564 133.219L508.271 134.175ZM515.896 136.379C517.18 136.728 518.463 137.065 519.744 137.389L519.989 136.42C518.714 136.097 517.436 135.761 516.158 135.414L515.896 136.379ZM523.603 138.329C524.895 138.632 526.186 138.921 527.473 139.196L527.683 138.218C526.401 137.944 525.117 137.656 523.831 137.355L523.603 138.329ZM531.374 139.99C532.681 140.242 533.983 140.479 535.282 140.701L535.45 139.715C534.159 139.495 532.863 139.259 531.564 139.008L531.374 139.99ZM539.201 141.325C540.522 141.519 541.838 141.697 543.149 141.858L543.27 140.866C541.968 140.706 540.66 140.529 539.347 140.335L539.201 141.325ZM547.099 142.292C548.424 142.419 549.742 142.529 551.053 142.618L551.121 141.621C549.82 141.532 548.511 141.423 547.195 141.296L547.099 142.292ZM555.035 142.833C556.37 142.884 557.697 142.915 559.014 142.924L559.021 141.924C557.714 141.915 556.398 141.885 555.074 141.834L555.035 142.833ZM562.986 142.883C564.323 142.846 565.649 142.785 566.965 142.699L566.9 141.702C565.597 141.786 564.283 141.846 562.959 141.883L562.986 142.883ZM570.939 142.362C572.269 142.222 573.586 142.055 574.89 141.86L574.743 140.871C573.453 141.064 572.15 141.229 570.834 141.368L570.939 142.362ZM578.811 141.183C580.124 140.924 581.422 140.634 582.703 140.314L582.461 139.344C581.196 139.66 579.915 139.946 578.618 140.201L578.811 141.183ZM586.55 139.242C587.828 138.849 589.088 138.421 590.329 137.959L589.98 137.022C588.758 137.477 587.516 137.898 586.256 138.287L586.55 139.242ZM594.024 136.454C595.244 135.913 596.443 135.335 597.619 134.719L597.156 133.833C595.998 134.438 594.819 135.007 593.619 135.54L594.024 136.454ZM601.096 132.749C602.231 132.054 603.343 131.321 604.43 130.547L603.85 129.733C602.782 130.493 601.69 131.213 600.574 131.896L601.096 132.749ZM607.6 128.119C608.623 127.277 609.621 126.395 610.593 125.472L609.904 124.746C608.95 125.653 607.969 126.52 606.965 127.347L607.6 128.119ZM613.397 122.616C614.287 121.643 615.153 120.63 615.991 119.578L615.21 118.955C614.385 119.989 613.534 120.984 612.659 121.94L613.397 122.616ZM618.37 116.384C618.752 115.835 619.127 115.276 619.495 114.708L618.657 114.164C618.294 114.723 617.925 115.273 617.549 115.813L618.37 116.384ZM619.495 114.708C619.867 114.135 620.228 113.568 620.579 113.006L619.73 112.477C619.383 113.033 619.025 113.595 618.657 114.164L619.495 114.708ZM622.585 109.655C623.256 108.482 623.878 107.338 624.452 106.22L623.563 105.763C622.996 106.866 622.381 107.998 621.717 109.158L622.585 109.655ZM626.168 102.658C626.729 101.404 627.227 100.187 627.665 99.0073L626.727 98.6596C626.298 99.818 625.808 101.014 625.255 102.249L626.168 102.658ZM628.89 95.2624C629.267 93.9201 629.56 92.6299 629.775 91.3903L628.789 91.2198C628.581 92.4234 628.296 93.6802 627.927 94.9918L628.89 95.2624ZM630.207 87.4272C630.263 86.0325 630.21 84.7124 630.055 83.464L629.063 83.5866C629.21 84.7779 629.262 86.0434 629.208 87.3866L630.207 87.4272ZM629.177 79.5437C628.737 78.2295 628.169 77.0179 627.494 75.9037L626.639 76.4221C627.276 77.4733 627.812 78.6176 628.229 79.8611L629.177 79.5437ZM625.048 72.7255C624.119 71.7572 623.096 70.8938 622.002 70.1281L621.428 70.9473C622.473 71.6786 623.446 72.5001 624.326 73.4176L625.048 72.7255ZM618.55 68.124C617.355 67.5518 616.114 67.0672 614.85 66.6631L614.546 67.6156C615.77 68.007 616.968 68.4751 618.119 69.026L618.55 68.124ZM611.003 65.683C609.686 65.4274 608.368 65.2484 607.073 65.1391L606.989 66.1355C608.25 66.242 609.532 66.4161 610.812 66.6647L611.003 65.683ZM603.108 65.0164C601.717 65.0491 600.387 65.1625 599.152 65.3471L599.3 66.3361C600.491 66.1581 601.78 66.0479 603.132 66.0161L603.108 65.0164ZM595.247 66.2799C594.561 66.5222 593.94 66.7973 593.398 67.1033L593.89 67.9739C594.371 67.702 594.938 67.4498 595.58 67.2228L595.247 66.2799ZM593.398 67.1033C592.856 67.4095 592.291 67.7313 591.709 68.0685L592.211 68.9338C592.789 68.5989 593.35 68.279 593.89 67.9739L593.398 67.1033ZM588.358 70.0849C587.283 70.7597 586.186 71.481 585.091 72.2492L585.666 73.0677C586.744 72.3109 587.827 71.5991 588.89 70.9317L588.358 70.0849ZM581.952 74.6078C580.934 75.43 579.942 76.2965 578.998 77.208L579.693 77.9274C580.613 77.0389 581.583 76.1919 582.58 75.3856L581.952 74.6078ZM576.314 80.1039C575.469 81.1337 574.699 82.2132 574.029 83.343L574.889 83.8529C575.53 82.7718 576.27 81.7337 577.087 80.7381L576.314 80.1039ZM572.326 86.9427C571.883 88.1875 571.57 89.484 571.413 90.8322L572.406 90.9479C572.554 89.679 572.849 88.4561 573.268 87.2779L572.326 86.9427ZM571.413 94.8261C571.557 96.0883 571.839 97.3864 572.275 98.7204L573.225 98.4098C572.809 97.1371 572.542 95.905 572.406 94.7127L571.413 94.8261ZM573.822 102.38C574.116 102.95 574.439 103.526 574.79 104.107L575.646 103.59C575.305 103.027 574.994 102.47 574.71 101.921L573.822 102.38ZM574.79 104.107C575.131 104.672 575.533 105.236 575.993 105.797L576.767 105.164C576.333 104.635 575.959 104.109 575.646 103.59L574.79 104.107ZM578.876 108.687C579.852 109.517 580.949 110.341 582.158 111.152L582.716 110.322C581.534 109.528 580.467 108.728 579.523 107.926L578.876 108.687ZM585.609 113.27C586.737 113.905 587.933 114.53 589.194 115.143L589.631 114.244C588.387 113.639 587.209 113.023 586.1 112.398L585.609 113.27ZM592.876 116.82C594.081 117.335 595.333 117.838 596.629 118.329L596.983 117.393C595.7 116.908 594.461 116.41 593.268 115.901L592.876 116.82ZM600.438 119.689C601.69 120.11 602.976 120.52 604.293 120.915L604.581 119.957C603.273 119.565 601.998 119.159 600.757 118.741L600.438 119.689ZM608.188 122.019C609.465 122.36 610.769 122.689 612.096 123.003L612.326 122.03C611.008 121.718 609.714 121.392 608.446 121.053L608.188 122.019ZM616.028 123.877C617.328 124.148 618.648 124.405 619.987 124.648L620.166 123.664C618.835 123.423 617.523 123.167 616.231 122.898L616.028 123.877ZM623.972 125.318C625.292 125.522 626.628 125.713 627.979 125.888L628.108 124.896C626.765 124.722 625.438 124.533 624.126 124.329L623.972 125.318ZM631.974 126.357C633.301 126.496 634.639 126.621 635.989 126.73L636.07 125.733C634.728 125.625 633.397 125.501 632.079 125.362L631.974 126.357ZM640.02 127.006C641.355 127.082 642.7 127.142 644.054 127.185L644.086 126.186C642.741 126.142 641.404 126.083 640.076 126.008L640.02 127.006ZM648.081 127.267C649.42 127.278 650.765 127.272 652.118 127.25L652.101 126.25C650.757 126.272 649.42 126.278 648.089 126.267L648.081 127.267ZM656.158 127.134C657.494 127.079 658.835 127.008 660.18 126.919L660.114 125.921C658.777 126.009 657.445 126.081 656.117 126.135L656.158 127.134ZM664.203 126.601C665.54 126.478 666.88 126.338 668.223 126.179L668.105 125.186C666.772 125.344 665.44 125.483 664.112 125.605L664.203 126.601ZM672.218 125.654C673.546 125.461 674.875 125.25 676.204 125.02L676.034 124.035C674.714 124.263 673.394 124.473 672.075 124.664L672.218 125.654ZM680.177 124.277C681.491 124.013 682.805 123.729 684.117 123.426L683.892 122.451C682.589 122.753 681.284 123.034 679.979 123.297L680.177 124.277ZM688.037 122.46C689.338 122.12 690.636 121.76 691.931 121.379L691.649 120.42C690.363 120.797 689.075 121.155 687.784 121.493L688.037 122.46ZM695.783 120.184C697.06 119.766 698.333 119.328 699.602 118.869L699.261 117.929C698.002 118.384 696.739 118.819 695.472 119.233L695.783 120.184ZM703.379 117.434C704.625 116.938 705.867 116.42 707.102 115.881L706.702 114.964C705.477 115.499 704.245 116.013 703.009 116.505L703.379 117.434ZM710.778 114.203C711.991 113.626 713.196 113.026 714.395 112.404L713.934 111.517C712.746 112.133 711.55 112.728 710.348 113.3L710.778 114.203ZM717.945 110.485C719.116 109.825 720.279 109.143 721.434 108.438L720.913 107.585C719.769 108.283 718.615 108.959 717.454 109.613L717.945 110.485ZM724.84 106.276C725.404 105.905 725.965 105.527 726.523 105.144L725.958 104.319C725.404 104.699 724.848 105.073 724.29 105.442L724.84 106.276ZM726.523 105.144C727.074 104.767 727.621 104.391 728.165 104.018L727.6 103.193C727.055 103.566 726.508 103.942 725.958 104.319L726.523 105.144ZM731.396 101.801C732.495 101.048 733.581 100.303 734.656 99.5667L734.091 98.7418C733.016 99.4783 731.929 100.223 730.831 100.977L731.396 101.801ZM737.894 97.3509C738.987 96.6035 740.069 95.865 741.14 95.1355L740.577 94.3091C739.505 95.039 738.423 95.7777 737.329 96.5254L737.894 97.3509ZM744.401 92.9179C745.496 92.1755 746.579 91.4426 747.652 90.7193L747.093 89.8902C746.019 90.6141 744.935 91.3474 743.84 92.0903L744.401 92.9179ZM750.909 88.5312C752.014 87.792 753.108 87.0632 754.192 86.3446L753.639 85.5111C752.554 86.2305 751.459 86.9602 750.353 87.7001L750.909 88.5312ZM757.473 84.1812C758.578 83.4572 759.673 82.7441 760.759 82.0417L760.216 81.202C759.128 81.9055 758.031 82.6197 756.925 83.3448L757.473 84.1812ZM764.067 79.9198C765.185 79.2083 766.294 78.5085 767.397 77.8201L766.867 76.9719C765.762 77.6619 764.65 78.3632 763.53 79.0761L764.067 79.9198ZM770.74 75.7546C771.866 75.0664 772.985 74.3903 774.1 73.7261L773.588 72.8671C772.47 73.5333 771.347 74.2113 770.218 74.9013L770.74 75.7546ZM777.481 71.738C778.621 71.0769 779.757 70.4283 780.89 69.792L780.401 68.9201C779.264 69.5587 778.123 70.2095 776.979 70.8728L777.481 71.738ZM784.331 67.8933C785.488 67.2664 786.643 66.6521 787.798 66.0503L787.336 65.1635C786.176 65.7679 785.016 66.3847 783.855 67.0141L784.331 67.8933ZM791.294 64.2673C792.467 63.6817 793.642 63.1088 794.82 62.5483L794.39 61.6453C793.207 62.2086 792.026 62.7842 790.847 63.3725L791.294 64.2673ZM798.378 60.8971C799.57 60.3582 800.766 59.8316 801.969 59.3171L801.575 58.3977C800.366 58.9149 799.164 59.4443 797.966 59.9859L798.378 60.8971ZM805.592 57.811C806.802 57.3232 808.019 56.8471 809.245 56.3825L808.891 55.4473C807.658 55.9145 806.434 56.3932 805.218 56.8836L805.592 57.811ZM812.926 55.0322C814.151 54.5974 815.387 54.1736 816.634 53.7604L816.32 52.8111C815.066 53.2265 813.823 53.6526 812.591 54.0898L812.926 55.0322ZM820.37 52.5663C821.611 52.1838 822.864 51.8113 824.132 51.4485L823.857 50.4871C822.583 50.8517 821.323 51.2262 820.075 51.6107L820.37 52.5663ZM827.92 50.4046C829.172 50.0725 830.44 49.7493 831.722 49.4349L831.484 48.4636C830.196 48.7795 828.922 49.1043 827.663 49.438L827.92 50.4046ZM835.534 48.5368C836.796 48.2514 838.073 47.9738 839.367 47.7041L839.162 46.7252C837.863 46.996 836.581 47.2747 835.314 47.5615L835.534 48.5368ZM843.221 46.9329C844.495 46.6884 845.786 46.4508 847.094 46.2202L846.92 45.2354C845.607 45.4669 844.312 45.7053 843.032 45.9508L843.221 46.9329ZM850.95 45.5684C852.225 45.3618 853.517 45.1613 854.827 44.9668L854.68 43.9777C853.366 44.1728 852.07 44.374 850.79 44.5813L850.95 45.5684ZM858.73 44.4117C860.009 44.2377 861.304 44.0691 862.615 43.9057L862.492 42.9134C861.176 43.0772 859.878 43.2463 858.596 43.4208L858.73 44.4117ZM866.508 43.4417C867.801 43.2945 869.109 43.152 870.435 43.0142L870.331 42.0196C869.003 42.1577 867.691 42.3006 866.395 42.4482L866.508 43.4417ZM874.327 42.6274C874.983 42.565 875.644 42.5038 876.309 42.4435L876.219 41.4476C875.553 41.508 874.89 41.5694 874.232 41.6318L874.327 42.6274Z" fill="white"/>
<defs>
<clipPath id="clip0_123_1983">
<rect width="51" height="61" fill="white" transform="matrix(-1 0 0 1 911.583 0)"/>
</clipPath>
</defs>
</svg>
