<svg width="1199" height="739" viewBox="0 0 1199 739" fill="none" xmlns="http://www.w3.org/2000/svg">
<g style="mix-blend-mode:overlay">
<path fill-rule="evenodd" clip-rule="evenodd" d="M249.459 673.495C282.2 490.253 375.949 409.52 375.949 409.52C375.949 409.52 243.799 478.494 205.979 653.272C218.136 434.729 356.834 312.127 356.834 312.127C356.834 312.127 165.873 417.373 168.701 694.837C146.755 460.825 208.094 341.355 208.094 341.355C208.094 341.355 111.391 447.35 130.855 687.301C85.342 557.781 108.629 398.912 108.629 398.912C108.629 398.912 48.1348 533.856 93.5892 688.021C47.4521 587.63 35.9447 475.499 35.9447 475.499C35.9447 475.499 17.9625 587.026 65.1251 698.507C17.3564 620.83 0.381412 544.314 0.381412 544.314C0.381412 544.314 -7.60555 647.891 49.5185 738.999H272.777C274.372 717.076 278.817 691.247 288.546 662.722C321.825 565.123 413.233 493.482 413.233 493.482C413.233 493.482 294.494 543.491 249.459 673.492V673.495Z" fill="#F48F7B"/>
<path fill-rule="evenodd" clip-rule="evenodd" d="M312.5 738.999H337.848C358.411 701.986 394.749 682.706 394.749 682.706C394.749 682.706 341.304 687.751 312.5 738.999Z" fill="#F48F7B"/>
<path fill-rule="evenodd" clip-rule="evenodd" d="M281.44 738.999H311.031C336.504 652.731 396.754 607.864 396.754 607.864C396.754 607.864 312.727 643.621 281.44 738.999Z" fill="#F48F7B"/>
<path d="M1072.54 340.689C1025.96 342.628 1008.58 403.402 1060.95 417.626C1108.51 430.541 1136.83 405.851 1163.14 411.593C1181.91 415.687 1194.89 429.049 1194.89 429.049L1193.73 426.247C1193.73 426.247 1125.84 338.471 1072.54 340.689H1072.54Z" fill="#1D7265"/>
<path d="M1198.6 442.194L1199.83 443.734V430.062C1198.88 436.3 1198.52 440.665 1198.6 442.194Z" fill="#1D7265"/>
<path d="M1173.57 345L1174.5 348.018C1174.5 348.018 1186.23 340.359 1199.83 329.073V204.239C1194.67 222.039 1192.74 244.984 1191.65 269.571C1190.23 301.715 1173.58 345 1173.58 345H1173.57Z" fill="#1D7265"/>
<path d="M1145.54 137.463C1148.09 103.901 1118.33 79.5354 1091.31 93.4976C1022.49 129.058 1159.79 267.738 1159.79 267.738C1159.79 267.738 1161.4 264.54 1159.44 260.304C1150.75 241.556 1140.64 201.71 1145.53 137.463H1145.54Z" fill="#1D7265"/>
<path d="M1038.38 253.886C969.935 263.689 971.007 331.928 1014.15 352.584C1057.29 373.24 1096.62 357.162 1126.82 363.466C1166.18 371.674 1191.99 418.759 1191.99 418.759C1191.99 418.759 1111.92 243.355 1038.38 253.883L1038.38 253.886Z" fill="#46BDA9"/>
<path d="M1186.54 405.187C1186.54 405.187 1189.09 389.807 1199.83 368.622V281.993C1177.75 346.326 1186.54 405.187 1186.54 405.187Z" fill="#46BDA9"/>
<path d="M1162.39 283.092C1162.39 283.092 1172.21 235.05 1199.83 202.032V106.663C1156.85 154.81 1162.39 283.089 1162.39 283.089V283.092Z" fill="#46BDA9"/>
<path d="M1136.01 12.5518C1104.73 57.4534 1153.2 164.245 1153.2 164.245C1153.2 164.245 1157.63 132.811 1170.33 104.024C1177.54 87.6954 1191.65 78.8893 1199.83 64.9356V18.5734C1185.15 -4.2177 1148.8 -5.80638 1136.01 12.5546L1136.01 12.5518Z" fill="#46BDA9"/>
<path d="M1125.92 228.317C1124.92 163.759 1105.54 131.082 1073.26 148.057C1052.36 159.044 1055.08 191.307 1078.08 221.444C1116.88 272.262 1167.37 297.931 1167.37 297.931C1167.37 297.931 1126.45 262.9 1125.92 228.317Z" fill="#46BDA9"/>
<path d="M1081.41 383.262C1002.46 385.431 1015.16 469.005 1073.93 472.558C1101.68 474.235 1136.17 464.936 1163.88 469.768C1178.06 472.239 1190.5 477.66 1199.83 482.813V467.413C1175.89 434.003 1130.57 381.909 1081.41 383.259V383.262Z" fill="#1D7265"/>
<path d="M1164.78 23.3479C1165.02 22.1208 1164.15 20.945 1162.83 20.7229C1161.53 20.498 1160.24 21.3122 1160.01 22.5393C1154.62 50.0167 1143.27 125.847 1154.07 236.32C1161.25 309.647 1176.58 382.015 1199.83 452.603V436.85C1179.27 371.139 1165.56 303.939 1158.91 235.91C1148.16 125.992 1159.43 50.6431 1164.78 23.3479Z" fill="#1D7265"/>
<path d="M1184.83 403.425C1184.86 404.655 1185.94 405.637 1187.26 405.637C1187.28 405.637 1187.29 405.637 1187.31 405.637C1188.65 405.612 1189.71 404.581 1189.69 403.334C1189.29 385.426 1192.96 366.068 1199.83 346.554V332.737C1189.58 357.259 1184.34 381.474 1184.83 403.425H1184.83Z" fill="#1D7265"/>
<path d="M1058.88 422.236C1057.54 422.344 1056.55 423.437 1056.67 424.678C1056.78 425.923 1057.97 426.831 1059.29 426.734C1092.88 424.026 1156.46 439.247 1199.83 478.99V472.663C1178.13 453.722 1153.93 442.134 1135.56 435.381C1103.8 423.702 1075.12 420.937 1058.88 422.236Z" fill="#1D7265"/>
<path d="M1093.24 315.182C1058.36 297.342 1030.16 294.119 1018.99 295.03C1017.66 295.138 1016.67 296.234 1016.79 297.475C1016.9 298.72 1018.06 299.631 1019.42 299.528C1038.48 297.996 1128.04 312.79 1186.28 410.104C1186.72 410.844 1187.55 411.266 1188.4 411.266C1188.8 411.266 1189.2 411.175 1189.58 410.981C1190.75 410.374 1191.17 408.999 1190.52 407.909C1159.89 356.721 1120.71 329.232 1093.24 315.184L1093.24 315.182Z" fill="#1D7265"/>
<path d="M1163.76 290.884C1116.64 254.983 1088.13 204.737 1080.77 170.862C1080.51 169.641 1079.23 168.843 1077.91 169.097C1076.6 169.345 1075.75 170.535 1076.01 171.756C1083.54 206.414 1112.64 257.77 1160.68 294.375C1161.13 294.72 1161.67 294.888 1162.22 294.888C1162.92 294.888 1163.62 294.606 1164.1 294.062C1164.95 293.097 1164.79 291.673 1163.76 290.884Z" fill="#1D7265"/>
<path d="M1160.88 278.477C1161.02 278.5 1161.16 278.511 1161.29 278.511C1162.45 278.511 1163.48 277.737 1163.69 276.638C1171.98 231.952 1184.81 192.85 1199.83 164.351V154.275C1182.69 183.557 1168.17 225.908 1158.9 275.869C1158.67 277.099 1159.56 278.266 1160.88 278.477H1160.88Z" fill="#1D7265"/>
<path fill-rule="evenodd" clip-rule="evenodd" d="M529.278 610.91C529.146 612.24 528.95 613.481 528.702 614.631C511.853 692.346 457.6 731.895 457.6 731.895C457.6 731.895 509.03 664.393 512.079 580.261C504.775 569.627 496.39 559.808 486.903 551.033C485.327 556.824 483.184 562.977 480.413 569.368C451.857 635.21 411.108 654.064 411.108 654.064C411.108 654.064 459.376 599.277 469.999 537.344C457.414 528.461 443.279 521.161 427.538 515.797C427.609 519.487 427.367 523.163 426.745 526.696C416.671 584.045 371.421 639.925 371.421 639.925C371.421 639.925 404.768 569.736 403.632 509.397C381.87 505.064 357.523 504.05 330.486 507.037C321.344 508.045 312.433 509.744 303.782 512.093C338.249 582.029 332.353 662.329 332.353 662.329C332.353 662.329 308.882 572.628 280.063 520.355C258.34 529.717 238.833 543.297 222.323 560.067C228.158 609.9 250.953 662.047 250.953 662.047C250.953 662.047 227.895 648.068 196.299 592.996C185.927 609.472 177.852 627.671 172.488 647.063C211.208 675.616 267.22 709.559 267.22 709.559C267.22 709.559 222.43 702.988 166.66 675.787C164.492 692.377 164.259 709.562 166.191 727.052C170.924 731.007 175.987 734.984 181.296 738.958H548.35C550.281 725.702 551.038 712.913 550.379 700.933C548.653 669.398 541.768 638.496 529.275 610.907L529.278 610.91Z" fill="#46BDA9"/>
<path d="M187.734 726.381C184.559 731.135 184.372 735.21 186.151 738.689H223.009C211.361 726.124 195.965 714.05 187.734 726.381Z" fill="#0B332B"/>
<path d="M257.348 738.689H307.238C312.874 733.624 314.919 727.403 310.452 719.798C300.88 703.501 275.511 721.987 257.351 738.689H257.348Z" fill="#0B332B"/>
<path d="M246.085 714.286C246.774 703.046 246.74 692.019 245.99 681.268C253.322 678.999 304.446 662.281 289.96 641.594C275.875 621.479 250.644 670.296 245.899 679.919C245.568 675.517 245.115 671.164 244.542 666.862C243.713 660.635 242.623 654.508 241.282 648.492C247.705 643.419 281.027 615.919 259.531 607.784C245.158 602.346 241.392 633.608 240.498 645.144C239.035 639.049 237.312 633.067 235.328 627.21C235.401 621.018 235.181 579.299 215.42 588.139C198.179 595.852 221.105 616.61 231.085 624.691C233.571 631.606 235.686 638.707 237.422 645.973C227.929 637.377 203.138 616.833 195.604 629.328C186.564 644.324 226.735 648.43 238.193 649.287C239.497 655.163 240.56 661.148 241.371 667.226C241.977 671.756 242.436 676.351 242.77 680.992C235.894 673.869 201.522 639.498 193.345 655.405C183.246 675.044 234.538 681.271 242.849 682.145C243.618 693.65 243.554 705.477 242.657 717.543C240.048 714.434 200.995 668.402 192.402 689.972C183.478 712.376 239.402 717.426 242.644 717.697C242.164 724.109 241.46 730.586 240.511 737.12C240.434 737.644 240.348 738.162 240.269 738.683H243.498C243.557 738.293 243.621 737.908 243.676 737.516C244.662 730.72 245.39 723.983 245.874 717.315C259.212 714.278 316.697 699.82 303.84 678.848C292.464 660.296 256.595 701.491 246.085 714.278V714.286Z" fill="#0B332B"/>
<path d="M120.617 467.547C120.617 467.547 119.926 464.737 119.13 460.43C118.722 460.825 118.395 461.298 118.199 461.853C114.568 472.1 111.121 482.239 107.864 492.357C108.767 497.26 109.199 500.48 109.199 500.48C109.199 500.48 107.993 499.643 106.015 498.174C102.176 510.374 98.6219 522.571 95.3922 534.918C97.0331 539.343 97.9362 542.173 97.9362 542.173C97.9362 542.173 96.43 541.658 93.9136 540.704C90.3411 554.857 87.1879 569.24 84.5093 584.091C86.3155 586.44 87.341 587.855 87.341 587.855C87.341 587.855 86.0981 587.653 83.9583 587.245C81.2368 602.782 79.0265 618.84 77.3764 635.68C78.9499 637.722 79.8408 638.957 79.8408 638.957C79.8408 638.957 78.8275 638.983 77.055 638.983C75.4876 655.858 74.4927 673.547 74.0978 692.269C75.8366 693.781 76.8376 694.698 76.8376 694.698C76.8376 694.698 75.8152 694.798 74.0427 694.923C73.7947 708.888 73.8835 723.445 74.3335 738.691H82.4827C82.0296 723.42 81.9439 708.845 82.1949 694.866C79.7214 694.607 78.2673 694.413 78.2673 694.413C78.2673 694.413 79.752 693.237 82.2684 691.401C82.6756 673.143 83.6644 655.875 85.2011 639.393C83.2327 639.228 82.1 639.108 82.1 639.108C82.1 639.108 83.3276 638.24 85.4552 636.814C87.093 619.964 89.3033 603.907 92.0279 588.376C89.6492 588.29 88.2686 588.205 88.2686 588.205C88.2686 588.205 89.9584 586.528 92.8299 583.892C95.3678 570.009 98.3189 556.528 101.647 543.261C98.9893 543.195 97.4341 543.112 97.4341 543.112C97.4341 543.112 99.5954 540.761 103.202 537.173C106.538 524.37 110.224 511.735 114.222 499.091C111.755 499.831 110.286 500.224 110.286 500.224C110.286 500.224 113.451 494.108 118.432 486.091C120.841 478.836 123.339 471.562 125.938 464.231C126.293 463.231 126.174 462.195 125.699 461.327C122.763 465.127 120.62 467.55 120.62 467.55L120.617 467.547Z" fill="#1D7265"/>
<path d="M132.076 415.941C112.177 411.508 116.322 445.269 119.13 460.429C120.183 459.407 121.799 458.969 123.342 459.439C124.404 459.766 125.228 460.461 125.696 461.321C135.459 448.691 154.019 420.829 132.073 415.941H132.076Z" fill="#1D7265"/>
<path d="M123.342 459.442C121.799 458.969 120.18 459.408 119.13 460.432C119.929 464.74 120.617 467.55 120.617 467.55C120.617 467.55 122.76 465.127 125.696 461.326C125.225 460.467 124.404 459.772 123.342 459.445V459.442Z" fill="#1D7265"/>
<path d="M123.342 459.442C121.799 458.969 120.18 459.408 119.13 460.432C119.929 464.74 120.617 467.55 120.617 467.55C120.617 467.55 122.76 465.127 125.696 461.326C125.225 460.467 124.404 459.772 123.342 459.445V459.442Z" fill="#1D7265"/>
<path d="M76.5835 445.548C56.2258 459.063 94.4371 489.564 106.015 498.174C106.624 496.235 107.239 494.296 107.864 492.357C104.539 474.321 94.8198 433.439 76.5835 445.548Z" fill="#1D7265"/>
<path d="M106.015 498.174C107.993 499.646 109.199 500.48 109.199 500.48C109.199 500.48 108.767 497.26 107.864 492.357C107.24 494.296 106.627 496.235 106.015 498.174Z" fill="#1D7265"/>
<path d="M106.015 498.174C107.993 499.646 109.199 500.48 109.199 500.48C109.199 500.48 108.767 497.26 107.864 492.357C107.24 494.296 106.627 496.235 106.015 498.174Z" fill="#1D7265"/>
<path d="M44.9725 487.87C21.3361 511.025 77.9948 534.676 93.9136 540.704C94.4004 538.773 94.8902 536.843 95.3923 534.918C88.2502 515.672 67.0782 466.218 44.9725 487.87Z" fill="#1D7265"/>
<path d="M93.9137 540.701C96.4301 541.655 97.9362 542.17 97.9362 542.17C97.9362 542.17 97.0362 539.34 95.3923 534.916C94.8902 536.84 94.4004 538.77 93.9137 540.701Z" fill="#1D7265"/>
<path d="M93.9137 540.701C96.4301 541.655 97.9362 542.17 97.9362 542.17C97.9362 542.17 97.0362 539.34 95.3923 534.916C94.8902 536.84 94.4004 538.77 93.9137 540.701Z" fill="#1D7265"/>
<path d="M19.7442 544.954C5.69893 570.701 68.4864 584.316 83.9552 587.242C84.1389 586.192 84.3165 585.135 84.5063 584.088C73.4549 569.718 33.1864 520.315 19.7442 544.954Z" fill="#1D7265"/>
<path d="M83.9583 587.242C86.0981 587.65 87.341 587.852 87.341 587.852C87.341 587.852 86.3155 586.44 84.5093 584.088C84.3195 585.133 84.1451 586.192 83.9583 587.242Z" fill="#1D7265"/>
<path d="M83.9583 587.242C86.0981 587.65 87.341 587.852 87.341 587.852C87.341 587.852 86.3155 586.44 84.5093 584.088C84.3195 585.133 84.1451 586.192 83.9583 587.242Z" fill="#1D7265"/>
<path d="M11.9777 607.878C-1.1278 637.343 62.7709 638.977 77.055 638.977C77.1591 637.87 77.2693 636.776 77.3764 635.677C67.0537 622.299 27.0546 573.981 11.9777 607.878Z" fill="#1D7265"/>
<path d="M77.0551 638.98C78.8306 638.98 79.8408 638.954 79.8408 638.954C79.8408 638.954 78.95 637.719 77.3765 635.677C77.2693 636.776 77.1591 637.872 77.0551 638.977V638.98Z" fill="#1D7265"/>
<path d="M77.0551 638.98C78.8306 638.98 79.8408 638.954 79.8408 638.954C79.8408 638.954 78.95 637.719 77.3765 635.677C77.2693 636.776 77.1591 637.872 77.0551 638.977V638.98Z" fill="#1D7265"/>
<path d="M13.1104 672.821C5.63465 698.317 60.8545 695.862 74.0427 694.923C74.058 694.032 74.0794 693.152 74.0978 692.266C62.8597 682.504 20.4544 647.774 13.1104 672.821Z" fill="#1D7265"/>
<path d="M74.0427 694.92C75.8151 694.792 76.8376 694.695 76.8376 694.695C76.8376 694.695 75.8366 693.778 74.0978 692.267C74.0794 693.152 74.058 694.032 74.0427 694.923V694.92Z" fill="#1D7265"/>
<path d="M74.0427 694.92C75.8151 694.792 76.8376 694.695 76.8376 694.695C76.8376 694.695 75.8366 693.778 74.0978 692.267C74.0794 693.152 74.058 694.032 74.0427 694.923V694.92Z" fill="#1D7265"/>
<path d="M118.432 486.085C116.993 490.424 115.588 494.757 114.219 499.085C129.829 494.404 185.756 475.767 167.501 453.745C153.058 436.32 130.447 466.747 118.432 486.082V486.085Z" fill="#1D7265"/>
<path d="M114.219 499.087C115.588 494.757 116.99 490.427 118.432 486.088C113.448 494.108 110.286 500.221 110.286 500.221C110.286 500.221 111.752 499.828 114.222 499.087H114.219Z" fill="#1D7265"/>
<path d="M114.219 499.087C115.588 494.757 116.99 490.427 118.432 486.088C113.448 494.108 110.286 500.221 110.286 500.221C110.286 500.221 111.752 499.828 114.222 499.087H114.219Z" fill="#1D7265"/>
<path d="M103.199 537.17C102.672 539.195 102.152 541.222 101.643 543.255C119.466 543.69 187.259 543.306 173.352 511.484C161.088 483.423 118.729 521.733 103.199 537.17Z" fill="#1D7265"/>
<path d="M101.643 543.255C102.155 541.222 102.672 539.195 103.199 537.171C99.5924 540.755 97.4311 543.109 97.4311 543.109C97.4311 543.109 98.9862 543.192 101.643 543.257V543.255Z" fill="#1D7265"/>
<path d="M101.643 543.255C102.155 541.222 102.672 539.195 103.199 537.171C99.5924 540.755 97.4311 543.109 97.4311 543.109C97.4311 543.109 98.9862 543.192 101.643 543.257V543.255Z" fill="#1D7265"/>
<path d="M92.8268 583.886C92.5544 585.375 92.2911 586.872 92.0278 588.37C108.969 588.979 176.796 589.608 161.51 559.643C149.088 535.289 106.842 571.023 92.8268 583.886Z" fill="#1D7265"/>
<path d="M88.2686 588.199C88.2686 588.199 89.6492 588.285 92.0279 588.37C92.2912 586.872 92.5545 585.375 92.8269 583.886C89.9554 586.519 88.2655 588.199 88.2655 588.199H88.2686Z" fill="#1D7265"/>
<path d="M88.2686 588.199C88.2686 588.199 89.6492 588.285 92.0279 588.37C92.2912 586.872 92.5545 585.375 92.8269 583.886C89.9554 586.519 88.2655 588.199 88.2655 588.199H88.2686Z" fill="#1D7265"/>
<path d="M85.4553 636.81C85.3726 637.673 85.2838 638.527 85.2012 639.393C100.229 640.663 164.694 644.685 158.247 619.577C151.763 594.318 99.3107 627.52 85.4553 636.81Z" fill="#1D7265"/>
<path d="M85.2042 639.39C85.2838 638.525 85.3726 637.67 85.4583 636.808C83.3307 638.234 82.1031 639.103 82.1031 639.103C82.1031 639.103 83.2358 639.222 85.2042 639.387V639.39Z" fill="#1D7265"/>
<path d="M85.2042 639.39C85.2838 638.525 85.3726 637.67 85.4583 636.808C83.3307 638.234 82.1031 639.103 82.1031 639.103C82.1031 639.103 83.2358 639.222 85.2042 639.387V639.39Z" fill="#1D7265"/>
<path d="M82.2684 691.398C82.2439 692.551 82.2164 693.704 82.1949 694.863C97.4372 696.466 151.42 700.606 142.757 677.715C134.399 655.638 95.0188 682.082 82.2684 691.398Z" fill="#1D7265"/>
<path d="M82.198 694.866C82.2195 693.704 82.2439 692.551 82.2715 691.401C79.7551 693.237 78.2704 694.413 78.2704 694.413C78.2704 694.413 79.7276 694.607 82.198 694.866Z" fill="#1D7265"/>
<path d="M82.198 694.866C82.2195 693.704 82.2439 692.551 82.2715 691.401C79.7551 693.237 78.2704 694.413 78.2704 694.413C78.2704 694.413 79.7276 694.607 82.198 694.866Z" fill="#1D7265"/>
<path fill-rule="evenodd" clip-rule="evenodd" d="M848.805 550.828C822.533 542.446 776.099 679.059 764.757 713.799C763.131 718.887 762.204 721.737 762.204 721.737C762.204 721.737 763.113 718.836 764.757 713.799C778.508 670.723 842.297 466.585 817.779 462.036C776.418 454.357 714.824 708.74 714.824 708.74C714.824 708.74 746.579 523.251 718.758 520.586C678.648 516.746 680.078 638.061 680.078 638.061C680.078 638.061 667.793 538.944 638.616 538.087C613.084 537.339 643.048 698.095 643.048 698.095C643.048 698.095 569.693 519.24 538.416 526.403C507.138 533.563 612.298 704.595 612.298 704.595C612.298 704.595 504.824 564.474 498.454 593.876C492.083 623.281 604.161 738.481 604.161 738.481H795.177C795.177 738.481 889.741 563.888 848.802 550.825L848.805 550.828Z" fill="#2DA08A"/>
<path fill-rule="evenodd" clip-rule="evenodd" d="M1025.95 662.853C1023.58 667.83 1022.28 670.927 1022.28 670.927C1022.28 670.927 1023.74 667.941 1025.95 662.853Z" fill="#42D4BB"/>
<path fill-rule="evenodd" clip-rule="evenodd" d="M1114.42 662.853C1112.21 667.941 1110.75 670.927 1110.75 670.927C1110.75 670.927 1112.04 667.83 1114.42 662.853C1126.17 635.785 1159.07 549.188 1105.61 535.886C1048.59 521.693 1037.35 638.009 1037.35 638.009C1037.35 638.009 1028.43 544.28 982.352 547.055C914.74 551.127 965.962 663.337 965.962 663.337C965.962 663.337 930.181 623.147 893.216 651.063C862.477 674.278 902.966 713.79 925.822 738.6H1199.83V646.721C1189.79 654.201 1180.94 662.215 1175.23 667.682C1171.2 671.855 1168.49 674.378 1168.49 674.378C1168.49 674.378 1171.01 671.727 1175.23 667.682C1181.88 660.803 1192.13 649.44 1199.83 637.497V594.383C1196.73 592.862 1192.85 591.678 1188.08 590.912C1154.71 585.56 1124.61 641.505 1114.42 662.853Z" fill="#BBEFE5"/>
<path fill-rule="evenodd" clip-rule="evenodd" d="M910.735 711.942C910.735 711.942 936.138 655.16 901.209 651.108C865.743 646.994 852.923 704.158 852.923 704.158C852.923 704.158 844.259 648.987 816.573 657.013C792.195 664.08 809.161 721.885 809.161 721.885C809.161 721.885 766.866 679.232 741.026 684.57C720.558 688.798 759.121 731.331 765.737 738.964H943.412C952.519 725.737 957.344 714.368 952.008 707.985C938.997 692.417 910.732 711.948 910.732 711.948L910.735 711.942Z" fill="white"/>
<path fill-rule="evenodd" clip-rule="evenodd" d="M687 709.77C676.303 718.089 693.765 728.276 714.19 738.961H764.69C753.577 733.111 696.202 702.618 687.003 709.77H687Z" fill="white"/>
<path d="M349.692 696.822C341.457 705.742 335.356 715.365 331.165 725.145C337.383 730.13 344.16 734.25 351.165 738.959H425.016C404.3 731.22 376.421 719.243 355.916 702.929C353.644 701.124 351.566 698.974 349.695 696.819L349.692 696.822Z" fill="#1D7265"/>
<path d="M549.366 715.63C549.366 715.63 538.217 677.126 516.396 646.235C496.118 642.678 475.399 642.311 455.323 644.959C460.83 677.077 480.707 721.463 488.927 738.959H568.196C575.418 724.49 588.135 699.216 596.517 678.173C582.679 668.98 567.563 661.239 551.736 655.581C558.244 699.031 549.366 715.63 549.366 715.63Z" fill="#1D7265"/>
<path d="M413.092 655.715C392.606 664.006 376.087 673.843 363.104 684.403C383.238 707.587 416.058 727.861 436.128 738.965H485.409C472.034 723.824 443.647 689.044 434.42 648.982C427.143 650.833 420.02 652.914 413.095 655.715H413.092Z" fill="#1D7265"/>
<path d="M615.53 692.577C601.13 713.58 585.728 728.869 575.283 738.962H636.39C638.744 733.242 640.829 727.459 642.507 722.078C634.768 711.279 625.669 701.34 615.527 692.577H615.53Z" fill="#1D7265"/>
<path d="M544.208 616.138C544.309 609.578 544.352 602.924 544.315 596.177C544.26 585.893 544.03 575.834 543.645 565.983C565.156 564.275 640.308 556.425 625.039 531.029C610.387 506.661 560.142 547.067 543.458 561.533C542.732 545.319 541.551 529.708 539.916 514.712C561.082 510.447 633.678 493.877 617.569 470.118C604.157 450.337 555.532 494.951 539.46 510.615C537.776 496.018 535.655 482.019 533.101 468.626C551.558 463.49 615.484 443.805 596.501 422.335C580.943 404.737 544.48 448.745 532.299 464.538C529.241 449.175 525.601 434.626 521.383 420.917C537.354 412.658 588.474 383.988 557.384 370.159C536.212 360.741 523.841 396.105 519.099 413.746C515.018 401.361 510.454 389.679 505.39 378.746C505.087 378.091 504.564 377.553 503.924 377.132C508.136 359.71 515.242 317.699 484.681 321.28C448.928 325.471 481.711 363.685 496.023 378.587C495.573 379.429 495.493 380.392 495.922 381.317C500.817 391.891 505.24 403.183 509.205 415.152C496.231 400.136 470.865 375.102 457.049 390.377C440.788 408.359 494.664 420.732 512.073 424.192C516.074 437.382 519.534 451.37 522.457 466.118C508.926 454.604 462.254 417.176 448.119 436.044C433.505 455.552 506.74 466.719 523.017 468.937C525.684 482.796 527.873 497.334 529.593 512.517C513.674 502.026 460.059 468.658 448.181 486.939C432.048 511.771 510.729 515.037 529.918 515.464C531.546 530.434 532.722 546.031 533.438 562.242C514.709 549.521 456.477 512.44 447.976 537C439.275 562.125 512.438 565.684 533.6 566.188C533.986 575.979 534.213 585.981 534.268 596.211C534.304 603.385 534.259 610.461 534.142 617.422C516.567 606.09 446.258 562.851 438.437 590.909C430.404 619.733 514.538 620.346 534.09 620.101C533.714 639.396 532.798 657.748 531.586 674.688C515.419 664.678 447.835 624.727 435.776 648.586C419.46 680.872 511.703 678.338 531.408 677.379C529.654 701.112 527.34 721.375 525.154 738.962H535.25C537.418 721.375 539.698 701.332 541.434 677.843C561.694 678.973 638.879 681.126 624.273 649.36C613.442 625.801 558.752 661.691 541.722 673.658C542.901 656.885 543.782 638.727 544.143 619.705C565.949 618.427 652.48 611.602 626.771 585.244C610.635 568.699 560.203 604.151 544.202 616.138H544.208Z" fill="#0B332B"/>
<path fill-rule="evenodd" clip-rule="evenodd" d="M852.31 588.541C831.313 586.946 812.939 606.591 809.222 638.886C806.816 659.807 810.885 704.614 838.381 706.918C864.565 709.11 878.641 679.862 881.941 652.9C886.551 615.218 873.305 590.138 852.307 588.544L852.31 588.541Z" fill="#F48F7B"/>
<path fill-rule="evenodd" clip-rule="evenodd" d="M723.304 605.663C706.996 590.884 693.199 585.671 679.821 590.628C662.056 597.207 666.489 625.465 681.771 643.515C692.92 656.686 722.033 682.694 738.32 665.999C753.837 650.089 741.115 621.806 723.304 605.663Z" fill="#F48F7B"/>
<path fill-rule="evenodd" clip-rule="evenodd" d="M736.816 459.109C701.614 463.96 697.598 504.705 708.132 543.186C719.474 584.614 753.55 605.84 777.018 597.15C796.436 589.961 812.654 562.185 797.66 515.7C789.578 490.64 765.639 455.137 736.816 459.109Z" fill="#F48F7B"/>
<path d="M848.055 618.333C846.699 618.21 845.493 618.871 845.361 620.135C843.041 642.63 836.407 692.878 826.663 738.717H831.735C833.018 732.453 834.292 726.48 835.55 719.818C842.83 681.351 848.034 642.445 850.275 620.704C850.403 619.443 849.411 618.452 848.052 618.333H848.055Z" fill="#1D7265"/>
<path d="M704.376 626.609C703.378 625.747 701.816 625.866 700.886 626.794C699.955 627.722 700.013 628.947 701.008 629.809C724.945 650.545 749.873 691.74 765.017 738.717H770.206C766.392 726.759 762.244 715.812 758.34 706.735C743.766 672.821 724.094 643.695 704.373 626.612L704.376 626.609Z" fill="#1D7265"/>
<path d="M777.008 541.35C777.308 540.114 776.476 539.021 775.147 538.739C773.818 538.457 772.496 539.235 772.193 540.47C770.65 546.794 768.238 556.687 766.575 566.017C765.357 561.095 764.135 556.36 762.917 551.83C763.496 541.894 765.005 529.603 766.6 516.623L766.753 515.37C766.909 514.109 765.936 512.973 764.579 512.828C763.232 512.677 762.002 513.588 761.846 514.849L761.693 516.102C760.74 523.843 759.819 531.339 759.106 538.264C755.187 524.911 751.443 514.038 748.241 506.399C747.745 505.217 746.313 504.634 745.045 505.095C743.775 505.556 743.147 506.886 743.64 508.067C746.851 515.726 750.608 526.659 754.544 540.097C749.068 533.537 742.44 527.513 736.66 522.254C734.306 520.113 732.084 518.092 730.085 516.176C729.136 515.268 727.571 515.245 726.595 516.127C725.615 517.01 725.594 518.465 726.543 519.373C728.588 521.335 730.832 523.376 733.21 525.537C743.019 534.457 754.137 544.567 758.818 555.642C758.852 555.719 758.888 555.796 758.928 555.87C759.746 558.959 760.566 562.148 761.38 565.414C753.311 553.578 743.787 546.364 735.668 540.217L734.331 539.2C733.274 538.4 731.719 538.546 730.856 539.528C729.993 540.51 730.152 541.956 731.208 542.759L732.552 543.778C743.511 552.078 757.15 562.404 765.697 584.031C765.749 584.159 765.81 584.017 765.88 584.128C775.879 628.645 784.68 685.473 786.042 738.714H790.949C789.532 682.626 780.189 624.599 769.765 579.162C770.485 567.95 774.715 550.731 777.002 541.35H777.008Z" fill="#1D7265"/>
<path d="M1075.87 477.731C1060.94 465.244 1044.27 463.781 1023.42 473.125C1005.12 481.327 985.771 496.727 963.366 514.562C940.277 532.94 914.106 553.766 885.027 569.249L887.451 573.189C916.929 557.496 943.284 536.518 966.537 518.012C988.683 500.386 1007.81 485.162 1025.54 477.216C1044.38 468.774 1059.33 470.01 1072.6 481.111C1089.39 495.153 1083.96 521.679 1075.74 562.02C1066.87 605.555 1055 663.838 1064.11 738.717H1069.04C1059.9 664.407 1071.71 606.176 1080.54 562.863C1089.06 521.01 1094.7 493.484 1075.87 477.734V477.731Z" fill="#46BDA9"/>
<path d="M1080.52 392.777C1059.58 441.744 1131.99 435.321 1131.99 435.321C1131.99 435.321 1093.84 502.755 1163.29 522.474C1176.47 526.215 1188.41 526.753 1200 525.124V385.778C1143.88 377.775 1087.34 376.816 1080.52 392.777Z" fill="#5AB7A5"/>
<path d="M1183.62 607.733C1183.8 615.574 1189.63 621.072 1200 624.588V587.923C1190.85 590.084 1183.33 595.431 1183.62 607.733Z" fill="#2DA08A"/>
<path d="M1131.08 432.89C1108.3 441.451 1089.44 454.658 1075.06 472.145C1036.01 519.646 1031.12 593.324 1033.9 646.872C1035.43 676.331 1039.69 707.399 1046.3 738.717H1051.27C1044.6 707.399 1040.3 676.177 1038.76 646.656C1034.83 570.951 1048.71 511.581 1078.92 474.844C1092.76 458.012 1110.91 445.323 1132.87 437.072C1151.69 429.997 1173.94 426.022 1198.84 425.225C1199.19 425.214 1199.39 425.217 1200 425.205V420.673C1199.39 420.684 1199.08 420.69 1198.67 420.704C1173.2 421.518 1150.44 425.621 1131.08 432.892V432.89Z" fill="#2DA08A"/>
<path d="M900.266 335.151C844.844 350.062 791.424 400.877 832.204 391.117C916.329 370.982 976.83 416.214 998.372 403.408C1027.52 386.083 998.176 363.887 998.176 363.887C998.176 363.887 1059.38 375.415 1046.47 344.692C1035.78 319.267 969.639 316.483 900.266 335.148V335.151Z" fill="#84CCBF"/>
<path d="M1031.66 381.476C1024.52 373.59 1014.28 367.155 1001.23 362.35C977.521 353.62 948.491 351.442 925.167 349.691C922.323 349.478 919.571 349.27 916.926 349.059L916.506 353.581C919.157 353.791 921.922 353.999 924.772 354.213C947.774 355.938 976.401 358.087 999.428 366.566C1025.95 376.332 1039.2 392.381 1039.93 415.627C1040.38 429.977 1035.51 452.358 1029.34 480.692C1020.25 522.474 1007.79 579.572 1006.1 643.447C1005.23 676.308 1007.31 708.532 1012.29 738.711H1017.23C1012.22 708.532 1010.11 676.399 1010.98 643.558C1011.69 616.77 1012.66 580.142 1034.12 481.529C1040.35 452.91 1045.27 430.336 1044.81 415.462C1044.39 402.07 1039.96 390.653 1031.65 381.474L1031.66 381.476Z" fill="#46BDA9"/>
<path d="M1114.05 592.518C1098.99 600.968 1087.47 614.372 1079.89 632.363C1072.74 649.332 1068.87 670.401 1068.66 695.219L1071.29 738.714H1076.44C1074.47 723.34 1073.52 708.708 1073.63 695.256C1073.84 670.993 1077.46 650.408 1084.39 633.958C1091.57 616.921 1102.45 604.297 1116.57 596.373C1137.96 584.37 1165.84 580.948 1200 586.089V581.491C1165.23 576.344 1136.3 580.036 1114.05 592.515V592.518Z" fill="#2DA08A"/>
<path d="M1075.23 526.966C1070.91 516.386 1064.44 511.313 1054.86 510.994C1047.83 510.758 1041.67 513.847 1036.54 520.167C1021.58 538.6 1016.06 584.763 1021.4 647.029C1023.88 675.944 1028.57 706.829 1035.19 738.717H1040.16C1033.48 706.829 1028.75 675.682 1026.26 646.67C1023.69 616.63 1023.64 589.514 1026.13 568.138C1028.6 546.993 1033.54 531.359 1040.43 522.872C1044.55 517.804 1049.33 515.356 1054.68 515.518C1070.2 516.033 1073.51 532.521 1078.96 566.757C1083.95 598.124 1090.79 641.084 1114.3 690.777L1118.77 688.952C1095.52 639.814 1088.74 597.21 1083.79 566.1C1081.13 549.458 1079.04 536.316 1075.23 526.969V526.966Z" fill="#46BDA9"/>
<path d="M1134.82 532.791C1094.64 516.856 1079.61 557.977 1079.61 557.977C1079.61 557.977 1055.75 526.249 1024.62 539.058C995.01 551.241 1005.44 602.084 1030.32 644.483C1055.2 686.882 1099.04 729.105 1125.24 727.505C1147.06 726.172 1155.13 662.531 1161.03 634.974C1166.92 607.417 1175.26 548.835 1134.81 532.791H1134.82Z" fill="#5AB7A5"/>
<path d="M1074.54 527.208C1070.34 516.919 1064.08 511.985 1054.83 511.677L1054.71 514.843C1070.81 515.379 1074.17 532.043 1079.68 566.661C1084.67 597.987 1091.5 640.89 1114.97 690.501L1118.09 689.225C1094.8 640.005 1088.01 597.344 1083.05 566.194C1080.41 549.595 1078.32 536.481 1074.53 527.205L1074.54 527.208Z" fill="#2DA08A"/>
<path d="M1079.61 557.977C1079.61 557.977 1055.75 526.249 1024.62 539.058C1006.97 546.321 1003.55 567.321 1008.94 592.082C1050.89 579.632 1092.08 577.144 1092.65 547.004C1092.7 544.231 1092.6 541.64 1092.37 539.2C1083.43 547.522 1079.61 557.974 1079.61 557.974V557.977Z" fill="#2DA08A"/>
<path d="M998.806 491.144C998.806 491.144 1026.32 405.318 946.963 423.081C887.534 436.386 813.022 606.23 838.363 620.682C864.798 635.757 919.421 599.132 976.376 577.306C1023.45 559.267 1076.56 560.73 1077.22 526.477C1078.46 461.116 998.806 491.144 998.806 491.144Z" fill="#84CCBF"/>
<path d="M1023.74 473.743C1005.53 481.908 986.212 497.28 963.846 515.083C940.733 533.481 914.535 554.33 885.394 569.844L887.087 572.594C916.503 556.932 942.83 535.977 966.06 517.491C1009.33 483.053 1043.51 455.851 1073.1 480.601L1075.37 478.247C1060.69 465.967 1044.29 464.538 1023.74 473.745L1023.74 473.743Z" fill="#46BDA9"/>
</g>
</svg>
